<?xml version="1.0" encoding="iso-8859-1"?>
<!-- Uploaded to: SVG Repo, www.svgrepo.com, Generator: SVG Repo Mixer Tools -->
<svg height="800px" width="800px" version="1.1" id="Layer_1" xmlns="http://www.w3.org/2000/svg" xmlns:xlink="http://www.w3.org/1999/xlink" 
	 viewBox="0 0 512 512" xml:space="preserve">
<path style="fill:#FFE285;" d="M472.31,229.76c0-41.516-33.657-75.172-75.172-75.172H114.863c-41.516,0-75.172,33.656-75.172,75.172
	v47.352h432.618V229.76H472.31z"/>
<polyline style="fill:#D53349;" points="92.806,433.795 39.691,433.795 39.691,277.112 472.31,277.112 472.31,433.795 
	113.081,433.795 "/>
<g>
	<path style="fill:#EC6907;" d="M156.795,29.425c0,0,27.103,12.962,27.103,40.062c0,17.247-12.134,31.228-27.103,31.228
		c-14.969,0-27.103-13.98-27.103-31.228C129.692,42.387,156.795,29.425,156.795,29.425z"/>
	<path style="fill:#EC6907;" d="M256.001,29.425c0,0,27.101,12.962,27.101,40.062c0,17.247-12.134,31.228-27.102,31.228
		c-14.968,0-27.102-13.98-27.102-31.228C228.897,42.387,256.001,29.425,256.001,29.425z"/>
	<path style="fill:#EC6907;" d="M355.206,29.425c0,0,27.103,12.962,27.103,40.062c0,17.247-12.133,31.228-27.103,31.228
		c-14.968,0-27.103-13.98-27.103-31.228C328.104,42.387,355.206,29.425,355.206,29.425z"/>
</g>
<polyline style="fill:#2BA5B1;" points="113.081,433.795 504.398,433.795 504.398,483.399 7.602,483.399 7.602,433.795 
	92.806,433.795 "/>
<path style="fill:#53180F;" d="M479.912,426.193V284.714V269.51v-39.75c0-45.642-37.132-82.774-82.774-82.774h-34.33v-39.619
	c15.49-3.889,27.103-19.391,27.103-37.879c0-31.528-30.141-46.307-31.425-46.921l-3.28-1.568l-3.28,1.568
	c-1.283,0.613-31.425,15.392-31.425,46.921c0,18.489,11.612,33.99,27.103,37.879v39.619h-84.001v-39.619
	c15.49-3.889,27.101-19.391,27.101-37.879c0-31.528-30.14-46.307-31.425-46.921L256,20.998l-3.28,1.568
	c-1.283,0.613-31.425,15.392-31.425,46.921c0,18.489,11.612,33.99,27.103,37.879v39.619h-84.002v-39.619
	c15.49-3.889,27.103-19.391,27.103-37.879c0-31.528-30.141-46.307-31.425-46.921l-3.28-1.568l-3.28,1.568
	c-1.283,0.613-31.425,15.392-31.425,46.921c0,18.489,11.612,33.99,27.103,37.879v39.619h-34.33
	c-45.642,0-82.774,37.132-82.774,82.774v39.75v15.204v141.479H0v64.809h512v-64.809H479.912z M335.706,69.488
	c0-16.957,13.174-27.327,19.498-31.327c6.338,4.01,19.501,14.377,19.501,31.327c0,13.027-8.748,23.626-19.5,23.626
	C344.454,93.112,335.706,82.515,335.706,69.488z M236.5,69.488c0-16.958,13.176-27.328,19.499-31.327
	c6.338,4.01,19.501,14.377,19.501,31.327c0,13.027-8.748,23.626-19.499,23.626C245.248,93.112,236.5,82.515,236.5,69.488z
	 M137.294,69.488c0-16.957,13.175-27.327,19.498-31.327c6.338,4.01,19.501,14.377,19.501,31.327c0,13.027-8.748,23.626-19.5,23.626
	C146.042,93.112,137.294,82.515,137.294,69.488z M47.293,229.76c0-37.258,30.312-67.57,67.57-67.57h282.274
	c37.258,0,67.57,30.312,67.57,67.57v39.75H47.293L47.293,229.76L47.293,229.76z M496.796,475.797H15.204v-34.4h16.884h60.718
	v-15.204H47.293V284.714h417.414v15.208H256v15.204h208.707v15.208H355.206v15.204h109.501v80.655H113.081v15.204h366.832h16.884
	v34.4H496.796z"/>
</svg>