<?xml version="1.0" encoding="iso-8859-1"?>
<!-- Uploaded to: SVG Repo, www.svgrepo.com, Generator: SVG Repo Mixer Tools -->
<!DOCTYPE svg PUBLIC "-//W3C//DTD SVG 1.1//EN" "http://www.w3.org/Graphics/SVG/1.1/DTD/svg11.dtd">
<svg version="1.1" id="Capa_1" xmlns="http://www.w3.org/2000/svg" xmlns:xlink="http://www.w3.org/1999/xlink" 
	 viewBox="0 0 480.34 480.34" xml:space="preserve">
<g>
	<g id="XMLID_8_">
		<g>
			<path d="M480.09,76.823v344.48c0,2.21-1.8,4-4,4H456.9v2.25c0,7.86-6.4,14.25-14.25,14.25c-7.86,0-14.25-6.39-14.25-14.25v-2.25
				H145.69v2.25c0,7.86-6.39,14.25-14.25,14.25c-7.85,0-14.25-6.39-14.25-14.25v-2.25h-67.9v2.25c0,7.86-6.39,14.25-14.25,14.25
				c-7.85,0-14.25-6.39-14.25-14.25v-2.25H4.25c-2.21,0-4-1.79-4-4V76.823c0-2.21,1.79-4,4-4h227.69v-1.52c0-2.21,1.79-4,4-4
				c2.21,0,4,1.79,4,4v1.52h93.17l0.89-5.03c2.08-11.75,9.86-21.59,20.82-26.33c10.94-4.74,23.44-3.67,33.43,2.85l43.64,28.51h44.2
				C478.29,72.823,480.09,74.613,480.09,76.823z M472.09,417.303v-19.14H8.25v19.14h12.54v-6.54c-0.58-0.82-0.93-1.81-0.93-2.89
				c0-2.76,2.24-5,5-5s5,2.24,5,5c0,1.16-0.41,2.21-1.07,3.05v6.38h88.4v-6.67c-0.52-0.79-0.83-1.74-0.83-2.76c0-2.76,2.24-5,5-5
				s5,2.24,5,5c0,1.21-0.45,2.31-1.17,3.17v6.26H448.9v-6.26c-0.72-0.86-1.17-1.96-1.17-3.17c0-2.76,2.24-5,5-5c2.76,0,5,2.24,5,5
				c0,1.02-0.31,1.97-0.83,2.76v6.67H472.09z M472.09,390.163v-228.86h-42.96c0,0.01,0,0.01,0,0.01
				c-0.26,6.14-2.89,11.81-7.41,15.97c-4.28,3.94-9.77,6.08-15.55,6.08c-0.32,0-0.65-0.01-0.97-0.02c-1.51-0.06-2.99-0.27-4.42-0.61
				c-3.15-0.76-6.09-2.17-8.66-4.16c-1.8,1.28-3.94,1.97-6.17,1.97c-0.15,0-0.3,0-0.45-0.01c-2.87-0.12-5.52-1.35-7.46-3.45
				l-5.78-6.28c-1.94-2.11-2.94-4.85-2.82-7.72c0.02-0.6,0.11-1.19,0.23-1.78h-59.98v31.34v197.52H472.09z M472.09,153.303v-72.48
				h-28.22c8.51,6.64,13.55,16.79,13.6,27.71c0.06,11.93-5.83,23.01-15.75,29.63l-14.29,9.54c-0.52,0.35-1.09,0.55-1.67,0.63
				c0.96,1.57,1.7,3.24,2.26,4.97H472.09z M437.28,131.503c7.68-5.12,12.24-13.69,12.19-22.93c-0.04-9.24-4.69-17.78-12.42-22.83
				l-7.55-4.92h-86.32c0.52,0.09,1.03,0.21,1.54,0.39l8.07,2.77c5.6,1.92,8.59,8.03,6.67,13.63l-13.8,40.23
				c-1.52,4.45-5.7,7.26-10.16,7.26c-1.15,0-2.32-0.19-3.47-0.59l-8.07-2.76c-2.72-0.93-4.9-2.87-6.16-5.44
				c-0.94-1.91-1.27-4-1.01-6.06h-13.2c-6.58,0-11.93-5.35-11.93-11.92v-12.96c0-0.93-0.36-1.8-1-2.44
				c-0.74-0.74-1.7-1.09-2.74-1.02c-1.76,0.13-3.19,1.79-3.19,3.71v13.18c0,3.06-1.19,5.94-3.36,8.11
				c-2.33,2.32-5.56,3.54-8.85,3.33c-6.01-0.38-10.72-5.52-10.72-11.7v-13.17c0-0.93-0.35-1.8-1-2.44c-0.74-0.74-1.71-1.1-2.74-1.02
				c-1.76,0.13-3.19,1.79-3.19,3.71v13.18c0,3.06-1.19,5.94-3.36,8.11c-2.16,2.15-5.08,3.36-8.12,3.36c-0.24,0-0.48-0.01-0.72-0.03
				c-6.02-0.38-10.73-5.52-10.73-11.7v-37.72H8.25v14.8c2.99,0.03,5.86,1.21,7.98,3.34c2.16,2.14,3.35,5.03,3.35,8.1v13.43
				c0,1.92,1.56,3.47,3.46,3.47c0.93,0,1.8-0.36,2.45-1.02c0.66-0.65,1.02-1.52,1.02-2.45v-13.43c0-6.32,5.14-11.47,11.46-11.47
				c3.08,0,5.96,1.2,8.12,3.37c2.16,2.14,3.35,5.03,3.35,8.1v13.43c0,1.92,1.56,3.47,3.46,3.47c0.93,0,1.8-0.36,2.45-1.02
				c0.66-0.65,1.02-1.52,1.02-2.45v-13.43c0-6.32,5.14-11.47,11.46-11.47c3.08,0,5.96,1.2,8.12,3.37c2.16,2.14,3.35,5.03,3.35,8.1
				v5.34c0,1.33,1.08,2.4,2.39,2.4h4.22c0.57-2.72,1.92-5.23,3.93-7.25c2.75-2.74,6.39-4.25,10.25-4.25h50.07
				c4.85-7.23,13.09-12,22.43-12c14.89,0,27,12.12,27,27c0,14.89-12.11,27-27,27c-9.76,0-18.33-5.21-23.08-13h-49.42
				c-6.23,0-11.55-3.96-13.59-9.5h-4.81c-5.73,0-10.39-4.66-10.39-10.4v-5.34c0-0.93-0.35-1.79-1-2.44
				c-0.67-0.67-1.54-1.03-2.47-1.03c-1.9,0-3.46,1.56-3.46,3.47v13.43c0,3.06-1.19,5.94-3.36,8.11c-2.17,2.17-5.05,3.36-8.11,3.36
				c-6.32,0-11.46-5.14-11.46-11.47v-13.43c0-0.93-0.35-1.79-1-2.44c-0.67-0.67-1.54-1.03-2.47-1.03c-1.9,0-3.46,1.56-3.46,3.47
				v13.43c0,3.06-1.19,5.94-3.36,8.11s-5.05,3.36-8.11,3.36c-6.32,0-11.46-5.14-11.46-11.47v-13.43c0-0.93-0.35-1.79-1-2.44
				c-0.64-0.64-1.45-0.99-2.33-1.02v49.7h367.17l28.77-26.47c2.11-1.94,4.85-2.95,7.71-2.83c2.87,0.12,5.51,1.35,7.45,3.46
				l5.78,6.27c1.14,1.24,1.95,2.7,2.41,4.28L437.28,131.503z M448.9,427.553v-2.25h-12.5v2.25c0,3.45,2.8,6.25,6.25,6.25
				C446.09,433.803,448.9,431.003,448.9,427.553z M421.13,160.983c0.11-2.63-0.47-5.18-1.64-7.46l-21.26,19.57
				c2.17,1.36,4.66,2.15,7.3,2.26c3.99,0.16,7.83-1.24,10.78-3.95C419.25,168.683,420.97,164.983,421.13,160.983z M419.97,141.123
				c0.03-0.73-0.23-1.43-0.72-1.97l-5.78-6.28c-0.5-0.53-1.17-0.85-1.9-0.88c-0.04,0-0.08,0-0.12,0c-0.68,0-1.34,0.26-1.85,0.72
				l-31.29,28.81c-0.54,0.49-0.85,1.17-0.88,1.9c0,0.04,0,0.08,0,0.11c0,0.69,0.26,1.34,0.72,1.85l5.78,6.28
				c0.49,0.54,1.17,0.85,1.9,0.88c0.73,0.03,1.42-0.23,1.96-0.72l31.3-28.81C419.62,142.523,419.94,141.853,419.97,141.123z
				 M341.24,72.823h76.02l-33.38-21.81c-7.74-5.05-17.42-5.88-25.89-2.21c-8.48,3.67-14.5,11.29-16.11,20.39L341.24,72.823z
				 M351.9,95.023c0.49-1.43-0.28-2.99-1.7-3.48l-8.07-2.76c-0.29-0.1-0.59-0.15-0.89-0.15c-0.41,0-0.82,0.09-1.2,0.28
				c-0.66,0.32-1.15,0.87-1.38,1.56l-13.81,40.23c-0.23,0.7-0.19,1.44,0.13,2.09c0.32,0.66,0.88,1.15,1.57,1.39l8.07,2.77
				c1.43,0.49,2.99-0.28,3.48-1.7L351.9,95.023z M331.01,84.713l0.69-3.89h-91.76v37.72c0,1.94,1.45,3.61,3.23,3.72
				c1,0.06,1.97-0.29,2.69-1.01c0.65-0.66,1.01-1.53,1.01-2.45v-13.18c0-6.12,4.66-11.26,10.61-11.69c3.34-0.25,6.62,0.97,8.97,3.34
				c2.16,2.14,3.35,5.02,3.35,8.1v13.17c0,1.94,1.45,3.61,3.23,3.72c1,0.06,1.97-0.29,2.68-1.01c0.66-0.66,1.02-1.53,1.02-2.45
				v-13.18c0-6.12,4.66-11.26,10.61-11.69c3.35-0.25,6.62,0.97,8.97,3.34c2.16,2.14,3.35,5.02,3.35,8.1v12.96
				c0,2.16,1.76,3.92,3.93,3.92h5.39c-3.94-5.79-5.21-13.3-2.77-20.42c3.63-10.57,14.23-16.8,24.91-15.32
				C330.95,85.943,330.9,85.343,331.01,84.713z M319.5,121.663l9.37-27.33c-6.56-0.39-12.85,3.58-15.09,10.09
				C311.55,110.943,314.08,117.943,319.5,121.663z M301.69,390.163v-228.86H178.65v228.86H301.69z M191.59,118.303
				c0-10.47-8.52-19-19-19c-0.8,0-1.6,0.07-2.38,0.17v37.67c0.78,0.1,1.58,0.16,2.38,0.16
				C183.07,137.303,191.59,128.783,191.59,118.303z M170.65,390.163v-228.86H8.25v228.86H170.65z M162.21,134.203v-31.79
				c-5.18,3.4-8.62,9.25-8.62,15.89C153.59,124.953,157.03,130.803,162.21,134.203z M146.52,111.303h-46.43
				c-1.73,0-3.36,0.68-4.59,1.91c-1.23,1.23-1.91,2.86-1.91,4.59c0,3.59,2.92,6.5,6.5,6.5h46.18c-0.44-1.93-0.68-3.93-0.68-6
				C145.59,115.883,145.92,113.543,146.52,111.303z M137.69,427.553v-2.25h-12.5v2.25c0,3.45,2.81,6.25,6.25,6.25
				C134.89,433.803,137.69,431.003,137.69,427.553z M41.29,427.553v-2.25h-12.5v2.25c0,3.45,2.81,6.25,6.25,6.25
				C38.49,433.803,41.29,431.003,41.29,427.553z"/>
			<path style="fill:#333333;" d="M472.09,398.163v19.14H456.9v-6.67c0.52-0.79,0.83-1.74,0.83-2.76c0-2.76-2.24-5-5-5
				c-2.76,0-5,2.24-5,5c0,1.21,0.45,2.31,1.17,3.17v6.26H125.19v-6.26c0.72-0.86,1.17-1.96,1.17-3.17c0-2.76-2.24-5-5-5s-5,2.24-5,5
				c0,1.02,0.31,1.97,0.83,2.76v6.67h-88.4v-6.38c0.66-0.84,1.07-1.89,1.07-3.05c0-2.76-2.24-5-5-5s-5,2.24-5,5
				c0,1.08,0.35,2.07,0.93,2.89v6.54H8.25v-19.14H472.09z M430.69,407.873c0-2.76-2.23-5-5-5c-2.76,0-5,2.24-5,5c0,2.76,2.24,5,5,5
				C428.46,412.873,430.69,410.633,430.69,407.873z M98.86,407.873c0-2.76-2.24-5-5-5s-5,2.24-5,5c0,2.76,2.24,5,5,5
				S98.86,410.633,98.86,407.873z M62.86,407.873c0-2.76-2.24-5-5-5c-2.76,0-5,2.24-5,5c0,2.76,2.24,5,5,5
				C60.62,412.873,62.86,410.633,62.86,407.873z M46.36,407.873c0-2.76-2.24-5-5-5c-2.76,0-5,2.24-5,5c0,2.76,2.24,5,5,5
				C44.12,412.873,46.36,410.633,46.36,407.873z"/>
			<path style="fill:#4D4D4D;" d="M472.09,161.303v228.86h-162.4v-197.52h2.03c0,6.98,5.68,12.66,12.67,12.66
				c3.27,0,6.26-1.25,8.51-3.29l2.62,1.23c-13.77,13.13-22.35,31.63-22.35,52.1c0,39.7,32.29,72,72,72c39.7,0,72-32.3,72-72
				c0-34.51-24.41-63.44-56.88-70.4l0.49-2.21c1.43,0.34,2.91,0.55,4.42,0.61c0.32,0.01,0.65,0.02,0.97,0.02
				c5.78,0,11.27-2.14,15.55-6.08c4.52-4.16,7.15-9.83,7.41-15.97c0,0,0,0,0-0.01H472.09z M465.69,307.973c0-2.21-1.79-4-4-4h-8.67
				c-2.21,0-4,1.79-4,4s1.79,4,4,4h8.67C463.9,311.973,465.69,310.183,465.69,307.973z M465.69,319.303c0-2.21-1.79-4-4-4h-8.67
				c-2.21,0-4,1.79-4,4c0,2.21,1.79,4,4,4h8.67C463.9,323.303,465.69,321.513,465.69,319.303z M465.69,330.643c0-2.21-1.79-4-4-4
				h-8.67c-2.21,0-4,1.79-4,4c0,2.21,1.79,4,4,4h8.67C463.9,334.643,465.69,332.853,465.69,330.643z M465.69,341.973
				c0-2.21-1.79-4-4-4h-8.67c-2.21,0-4,1.79-4,4s1.79,4,4,4h8.67C463.9,345.973,465.69,344.183,465.69,341.973z M463.41,190.103
				c0-2.21-1.79-4-4-4h-0.56v-0.8c0-2.21-1.79-4-4-4s-4,1.79-4,4v0.8h-0.55c-2.21,0-4,1.79-4,4c0,2.2,1.79,4,4,4h0.55v12.54
				c0,2.21,1.79,4,4,4s4-1.79,4-4v-12.54h0.56C461.62,194.103,463.41,192.303,463.41,190.103z M451.17,171.973c0-2.21-1.8-4-4-4
				H432.5c-2.21,0-4,1.79-4,4c0,2.21,1.79,4,4,4h14.67C449.37,175.973,451.17,174.183,451.17,171.973z M444.5,381.973v-11.33
				c0-2.21-1.79-4-4-4h-16.67c-2.21,0-4,1.79-4,4v11.33c0,2.21,1.79,4,4,4h16.67C442.71,385.973,444.5,384.183,444.5,381.973z
				 M444.5,358.643v-24c0-2.21-1.79-4-4-4h-16.67c-2.21,0-4,1.79-4,4v24c0,2.21,1.79,4,4,4h16.67
				C442.71,362.643,444.5,360.853,444.5,358.643z M413.17,381.973v-11.33c0-2.21-1.8-4-4-4H392.5c-2.21,0-4,1.79-4,4v11.33
				c0,2.21,1.79,4,4,4h16.67C411.37,385.973,413.17,384.183,413.17,381.973z M413.17,358.643v-24c0-2.21-1.8-4-4-4H392.5
				c-2.21,0-4,1.79-4,4v24c0,2.21,1.79,4,4,4h16.67C411.37,362.643,413.17,360.853,413.17,358.643z M381.83,381.973v-11.33
				c0-2.21-1.79-4-4-4h-16.66c-2.21,0-4,1.79-4,4v11.33c0,2.21,1.79,4,4,4h16.66C380.04,385.973,381.83,384.183,381.83,381.973z
				 M381.83,358.643v-24c0-2.21-1.79-4-4-4h-16.66c-2.21,0-4,1.79-4,4v24c0,2.21,1.79,4,4,4h16.66
				C380.04,362.643,381.83,360.853,381.83,358.643z M350.5,381.973v-11.33c0-2.21-1.79-4-4-4h-16.67c-2.21,0-4,1.79-4,4v11.33
				c0,2.21,1.79,4,4,4h16.67C348.71,385.973,350.5,384.183,350.5,381.973z M350.5,358.643v-24c0-2.21-1.79-4-4-4h-16.67
				c-2.21,0-4,1.79-4,4v24c0,2.21,1.79,4,4,4h16.67C348.71,362.643,350.5,360.853,350.5,358.643z"/>
			<path style="fill:#333333;" d="M472.09,80.823v72.48h-44.07c-0.56-1.73-1.3-3.4-2.26-4.97c0.58-0.08,1.15-0.28,1.67-0.63
				l14.29-9.54c9.92-6.62,15.81-17.7,15.75-29.63c-0.05-10.92-5.09-21.07-13.6-27.71H472.09z"/>
			<path d="M461.69,303.973c2.21,0,4,1.79,4,4s-1.79,4-4,4h-8.67c-2.21,0-4-1.79-4-4s1.79-4,4-4H461.69z"/>
			<path d="M461.69,315.303c2.21,0,4,1.79,4,4c0,2.21-1.79,4-4,4h-8.67c-2.21,0-4-1.79-4-4c0-2.21,1.79-4,4-4H461.69z"/>
			<path d="M461.69,326.643c2.21,0,4,1.79,4,4c0,2.21-1.79,4-4,4h-8.67c-2.21,0-4-1.79-4-4c0-2.21,1.79-4,4-4H461.69z"/>
			<path d="M461.69,337.973c2.21,0,4,1.79,4,4s-1.79,4-4,4h-8.67c-2.21,0-4-1.79-4-4s1.79-4,4-4H461.69z"/>
			<path d="M459.41,186.103c2.21,0,4,1.79,4,4c0,2.2-1.79,4-4,4h-0.56v12.54c0,2.21-1.79,4-4,4s-4-1.79-4-4v-12.54h-0.55
				c-2.21,0-4-1.8-4-4c0-2.21,1.79-4,4-4h0.55v-0.8c0-2.21,1.79-4,4-4s4,1.79,4,4v0.8H459.41z"/>
			<path d="M447.17,167.973c2.2,0,4,1.79,4,4c0,2.21-1.8,4-4,4H432.5c-2.21,0-4-1.79-4-4c0-2.21,1.79-4,4-4H447.17z"/>
			<path style="fill:#333333;" d="M449.47,108.573c0.05,9.24-4.51,17.81-12.19,22.93l-9.74,6.51c-0.46-1.58-1.27-3.04-2.41-4.28
				l-5.78-6.27c-1.94-2.11-4.58-3.34-7.45-3.46c-2.86-0.12-5.6,0.89-7.71,2.83l-28.77,26.47H8.25v-49.7
				c0.88,0.03,1.69,0.38,2.33,1.02c0.65,0.65,1,1.51,1,2.44v13.43c0,6.33,5.14,11.47,11.46,11.47c3.06,0,5.94-1.19,8.11-3.36
				s3.36-5.05,3.36-8.11v-13.43c0-1.91,1.56-3.47,3.46-3.47c0.93,0,1.8,0.36,2.47,1.03c0.65,0.65,1,1.51,1,2.44v13.43
				c0,6.33,5.14,11.47,11.46,11.47c3.06,0,5.94-1.19,8.11-3.36c2.17-2.17,3.36-5.05,3.36-8.11v-13.43c0-1.91,1.56-3.47,3.46-3.47
				c0.93,0,1.8,0.36,2.47,1.03c0.65,0.65,1,1.51,1,2.44v5.34c0,5.74,4.66,10.4,10.39,10.4h4.81c2.04,5.54,7.36,9.5,13.59,9.5h49.42
				c4.75,7.79,13.32,13,23.08,13c14.89,0,27-12.11,27-27c0-14.88-12.11-27-27-27c-9.34,0-17.58,4.77-22.43,12h-50.07
				c-3.86,0-7.5,1.51-10.25,4.25c-2.01,2.02-3.36,4.53-3.93,7.25h-4.22c-1.31,0-2.39-1.07-2.39-2.4v-5.34c0-3.07-1.19-5.96-3.35-8.1
				c-2.16-2.17-5.04-3.37-8.12-3.37c-6.32,0-11.46,5.15-11.46,11.47v13.43c0,0.93-0.36,1.8-1.02,2.45
				c-0.65,0.66-1.52,1.02-2.45,1.02c-1.9,0-3.46-1.55-3.46-3.47v-13.43c0-3.07-1.19-5.96-3.35-8.1c-2.16-2.17-5.04-3.37-8.12-3.37
				c-6.32,0-11.46,5.15-11.46,11.47v13.43c0,0.93-0.36,1.8-1.02,2.45c-0.65,0.66-1.52,1.02-2.45,1.02c-1.9,0-3.46-1.55-3.46-3.47
				v-13.43c0-3.07-1.19-5.96-3.35-8.1c-2.12-2.13-4.99-3.31-7.98-3.34v-14.8h223.69v37.72c0,6.18,4.71,11.32,10.73,11.7
				c0.24,0.02,0.48,0.03,0.72,0.03c3.04,0,5.96-1.21,8.12-3.36c2.17-2.17,3.36-5.05,3.36-8.11v-13.18c0-1.92,1.43-3.58,3.19-3.71
				c1.03-0.08,2,0.28,2.74,1.02c0.65,0.64,1,1.51,1,2.44v13.17c0,6.18,4.71,11.32,10.72,11.7c3.29,0.21,6.52-1.01,8.85-3.33
				c2.17-2.17,3.36-5.05,3.36-8.11v-13.18c0-1.92,1.43-3.58,3.19-3.71c1.04-0.07,2,0.28,2.74,1.02c0.64,0.64,1,1.51,1,2.44v12.96
				c0,6.57,5.35,11.92,11.93,11.92h13.2c-0.26,2.06,0.07,4.15,1.01,6.06c1.26,2.57,3.44,4.51,6.16,5.44l8.07,2.76
				c1.15,0.4,2.32,0.59,3.47,0.59c4.46,0,8.64-2.81,10.16-7.26l13.8-40.23c1.92-5.6-1.07-11.71-6.67-13.63l-8.07-2.77
				c-0.51-0.18-1.02-0.3-1.54-0.39h86.32l7.55,4.92C444.78,90.793,449.43,99.333,449.47,108.573z"/>
			<path style="fill:#E8653D;" d="M448.96,250.493c0.12,1.6,0.21,3.21,0.21,4.85c0,1.63-0.09,3.24-0.21,4.84
				c-1.32-1.19-2.14-2.92-2.14-4.84C446.82,253.413,447.64,251.683,448.96,250.493z"/>
			<path style="fill:#808080;" d="M446.05,235.643c0.67,2.06,1.24,4.16,1.69,6.3c-5.29,2.18-8.92,7.35-8.92,13.4h-2.8
				c0-9.65-2.69-18.67-7.37-26.36l2.51-1.34c0.15,0.29,0.3,0.58,0.47,0.87c2.68,4.65,7.5,7.28,12.51,7.28
				C444.78,235.793,445.41,235.733,446.05,235.643z"/>
			<path style="fill:#808080;" d="M447.74,268.733c-0.45,2.14-1.02,4.24-1.69,6.29c-5.67-0.76-11.4,1.91-14.42,7.14
				c-0.17,0.29-0.32,0.58-0.47,0.87l-2.51-1.34c4.68-7.69,7.37-16.71,7.37-26.35h2.8C438.82,261.383,442.45,266.553,447.74,268.733z
				"/>
			<path d="M444.5,370.643v11.33c0,2.21-1.79,4-4,4h-16.67c-2.21,0-4-1.79-4-4v-11.33c0-2.21,1.79-4,4-4h16.67
				C442.71,366.643,444.5,368.433,444.5,370.643z M436.5,377.973v-3.33h-8.67v3.33H436.5z"/>
			<path d="M444.5,334.643v24c0,2.21-1.79,4-4,4h-16.67c-2.21,0-4-1.79-4-4v-24c0-2.21,1.79-4,4-4h16.67
				C442.71,330.643,444.5,332.433,444.5,334.643z M436.5,354.643v-16h-8.67v16H436.5z"/>
			<path style="fill:#E8653D;" d="M442.85,227.643c-1.74-0.37-3.33-1.46-4.29-3.13c-0.97-1.66-1.12-3.57-0.57-5.26
				C439.81,221.913,441.44,224.713,442.85,227.643z"/>
			<path style="fill:#E8653D;" d="M438.56,286.163c0.96-1.67,2.54-2.76,4.29-3.12c-1.41,2.92-3.04,5.72-4.86,8.38
				C437.44,289.733,437.59,287.833,438.56,286.163z"/>
			<path d="M400.29,184.943c32.47,6.96,56.88,35.89,56.88,70.4c0,39.7-32.3,72-72,72c-39.71,0-72-32.3-72-72
				c0-20.47,8.58-38.97,22.35-52.1c12.92-12.33,30.41-19.9,49.65-19.9C390.36,183.343,395.42,183.893,400.29,184.943z
				 M449.17,255.343c0-1.64-0.09-3.25-0.21-4.85c-1.32,1.19-2.14,2.92-2.14,4.85c0,1.92,0.82,3.65,2.14,4.84
				C449.08,258.583,449.17,256.973,449.17,255.343z M447.74,241.943c-0.45-2.14-1.02-4.24-1.69-6.3c-0.64,0.09-1.27,0.15-1.91,0.15
				c-5.01,0-9.83-2.63-12.51-7.28c-0.17-0.29-0.32-0.58-0.47-0.87c-2.48-5.04-1.81-10.89,1.48-15.17c-1.46-1.62-3-3.16-4.62-4.62
				c-2.54,1.94-5.6,2.99-8.74,2.99c-2.48,0-4.99-0.64-7.29-1.97c-5.23-3.02-7.9-8.75-7.14-14.42c-2.05-0.67-4.15-1.23-6.29-1.69
				c-2.18,5.3-7.35,8.93-13.39,8.93c-6.05,0-11.22-3.63-13.4-8.93c-2.14,0.46-4.24,1.02-6.29,1.69c0.76,5.67-1.91,11.4-7.14,14.42
				c-2.3,1.33-4.81,1.97-7.29,1.97c-3.14,0-6.2-1.05-8.74-2.99c-1.62,1.46-3.16,3-4.62,4.62c3.48,4.53,4.03,10.82,1.01,16.04
				c-0.17,0.29-0.34,0.57-0.53,0.85c-2.75,4.12-7.27,6.43-11.98,6.43c-0.64,0-1.27-0.06-1.91-0.15c-0.67,2.06-1.24,4.16-1.69,6.3
				c5.29,2.18,8.93,7.35,8.93,13.4c0,6.04-3.64,11.21-8.93,13.39c0.45,2.14,1.02,4.24,1.69,6.29c5.36-0.72,10.76,1.62,13.89,6.29
				c0.19,0.28,0.36,0.56,0.53,0.85c3.02,5.23,2.47,11.51-1.01,16.04c1.46,1.62,3,3.16,4.61,4.62c4.53-3.49,10.82-4.04,16.04-1.02
				c5.23,3.02,7.9,8.75,7.14,14.42c2.05,0.67,4.15,1.24,6.29,1.69c2.18-5.29,7.35-8.92,13.4-8.92c6.04,0,11.21,3.63,13.39,8.92
				c2.14-0.45,4.24-1.02,6.29-1.69c-0.76-5.67,1.91-11.4,7.14-14.42c5.23-3.02,11.51-2.47,16.04,1.01c1.62-1.45,3.16-2.99,4.61-4.61
				c-3.29-4.28-3.96-10.12-1.48-15.17c0.15-0.29,0.3-0.58,0.47-0.87c3.02-5.23,8.75-7.9,14.42-7.14c0.67-2.05,1.24-4.15,1.69-6.29
				c-5.29-2.18-8.92-7.35-8.92-13.39C438.82,249.293,442.45,244.123,447.74,241.943z M438.56,224.513c0.96,1.67,2.55,2.76,4.29,3.13
				c-1.41-2.93-3.04-5.73-4.86-8.39C437.44,220.943,437.59,222.853,438.56,224.513z M442.85,283.043c-1.75,0.36-3.33,1.45-4.29,3.12
				c-0.97,1.67-1.12,3.57-0.57,5.26C439.81,288.763,441.44,285.963,442.85,283.043z M421.25,308.163c-1.69-0.55-3.6-0.39-5.26,0.57
				c-1.67,0.96-2.76,2.55-3.13,4.3C415.79,311.623,418.59,309.983,421.25,308.163z M415.99,201.953c1.66,0.96,3.57,1.11,5.26,0.56
				c-2.66-1.82-5.46-3.45-8.39-4.86C413.23,199.403,414.32,200.983,415.99,201.953z M390.01,191.543c-1.6-0.12-3.21-0.2-4.84-0.2
				c-1.64,0-3.25,0.08-4.85,0.2c1.19,1.32,2.92,2.15,4.85,2.15C387.09,193.693,388.82,192.863,390.01,191.543z M385.17,319.343
				c1.63,0,3.24-0.09,4.84-0.21c-1.19-1.32-2.92-2.14-4.84-2.14c-1.93,0-3.66,0.82-4.85,2.14
				C381.92,319.253,383.53,319.343,385.17,319.343z M354.34,201.953c1.67-0.97,2.76-2.55,3.13-4.3c-2.93,1.41-5.73,3.04-8.39,4.86
				C350.77,203.063,352.68,202.913,354.34,201.953z M357.47,313.033c-0.37-1.75-1.46-3.34-3.13-4.3c-1.66-0.96-3.57-1.12-5.26-0.57
				C351.74,309.983,354.54,311.623,357.47,313.033z M331.78,224.513c0.96-1.66,1.11-3.57,0.56-5.26c-1.82,2.66-3.45,5.46-4.86,8.39
				C329.23,227.273,330.81,226.183,331.78,224.513z M332.34,291.423c0.55-1.69,0.4-3.59-0.56-5.26c-0.97-1.67-2.55-2.76-4.3-3.12
				C328.89,285.963,330.52,288.763,332.34,291.423z M321.37,260.183c1.32-1.19,2.15-2.92,2.15-4.84c0-1.93-0.83-3.66-2.15-4.85
				c-0.12,1.6-0.2,3.21-0.2,4.85C321.17,256.973,321.25,258.583,321.37,260.183z"/>
			<rect x="427.83" y="374.643" style="fill:#E8653D;" width="8.67" height="3.33"/>
			<rect x="427.83" y="338.643" style="fill:#E8653D;" width="8.67" height="16"/>
			<path style="fill:#808080;" d="M431.16,227.643l-2.51,1.34c-8.93-14.68-25.08-24.5-43.48-24.5v-2.79
				c6.04,0,11.21-3.63,13.39-8.93c2.14,0.46,4.24,1.02,6.29,1.69c-0.76,5.67,1.91,11.4,7.14,14.42c2.3,1.33,4.81,1.97,7.29,1.97
				c3.14,0,6.2-1.05,8.74-2.99c1.62,1.46,3.16,3,4.62,4.62C429.35,216.753,428.68,222.603,431.16,227.643z"/>
			<path style="fill:#808080;" d="M428.65,281.693l2.51,1.34c-2.48,5.05-1.81,10.89,1.48,15.17c-1.45,1.62-2.99,3.16-4.61,4.61
				c-4.53-3.48-10.81-4.03-16.04-1.01c-5.23,3.02-7.9,8.75-7.14,14.42c-2.05,0.67-4.15,1.24-6.29,1.69
				c-2.18-5.29-7.35-8.92-13.39-8.92v-2.8C403.57,306.193,419.72,296.373,428.65,281.693z"/>
			<path d="M425.69,402.873c2.77,0,5,2.24,5,5c0,2.76-2.23,5-5,5c-2.76,0-5-2.24-5-5C420.69,405.113,422.93,402.873,425.69,402.873z
				"/>
			<path d="M428.65,228.983c4.68,7.69,7.37,16.71,7.37,26.36c0,9.64-2.69,18.66-7.37,26.35c-8.93,14.68-25.08,24.5-43.48,24.5
				c-18.85,0-35.33-10.3-44.11-25.56c-4.3-7.45-6.75-16.09-6.75-25.29c0-9.21,2.45-17.85,6.75-25.3
				c8.78-15.26,25.26-25.56,44.11-25.56C403.57,204.483,419.72,214.303,428.65,228.983z M428.02,255.343
				c0-23.64-19.22-42.86-42.85-42.86c-23.64,0-42.86,19.22-42.86,42.86c0,23.63,19.22,42.85,42.86,42.85
				C408.8,298.193,428.02,278.973,428.02,255.343z"/>
			<path style="fill:#E8653D;" d="M419.49,153.523c1.17,2.28,1.75,4.83,1.64,7.46c-0.16,4-1.88,7.7-4.82,10.42
				c-2.95,2.71-6.79,4.11-10.78,3.95c-2.64-0.11-5.13-0.9-7.3-2.26L419.49,153.523z"/>
			<path style="fill:#808080;" d="M419.25,139.153c0.49,0.54,0.75,1.24,0.72,1.97s-0.35,1.4-0.88,1.89l-31.3,28.81
				c-0.54,0.49-1.23,0.75-1.96,0.72c-0.73-0.03-1.41-0.34-1.9-0.88l-5.78-6.28c-0.46-0.51-0.72-1.16-0.72-1.85c0-0.03,0-0.07,0-0.11
				c0.03-0.73,0.34-1.41,0.88-1.9l31.29-28.81c0.51-0.46,1.17-0.72,1.85-0.72c0.04,0,0.08,0,0.12,0c0.73,0.03,1.4,0.35,1.9,0.88
				L419.25,139.153z"/>
			<path style="fill:#E8653D;" d="M415.99,308.733c1.66-0.96,3.57-1.12,5.26-0.57c-2.66,1.82-5.46,3.46-8.39,4.87
				C413.23,311.283,414.32,309.693,415.99,308.733z"/>
			<path style="fill:#E8653D;" d="M421.25,202.513c-1.69,0.55-3.6,0.4-5.26-0.56c-1.67-0.97-2.76-2.55-3.13-4.3
				C415.79,199.063,418.59,200.693,421.25,202.513z"/>
			<path style="fill:#1A1A1A;" d="M385.17,212.483c23.63,0,42.85,19.22,42.85,42.86c0,23.63-19.22,42.85-42.85,42.85
				c-23.64,0-42.86-19.22-42.86-42.85C342.31,231.703,361.53,212.483,385.17,212.483z M399.21,255.343c0-7.75-6.3-14.05-14.04-14.05
				c-7.75,0-14.05,6.3-14.05,14.05c0,7.74,6.3,14.04,14.05,14.04C392.91,269.383,399.21,263.083,399.21,255.343z"/>
			<path d="M413.17,370.643v11.33c0,2.21-1.8,4-4,4H392.5c-2.21,0-4-1.79-4-4v-11.33c0-2.21,1.79-4,4-4h16.67
				C411.37,366.643,413.17,368.433,413.17,370.643z M405.17,377.973v-3.33h-8.67v3.33H405.17z"/>
			<path d="M413.17,334.643v24c0,2.21-1.8,4-4,4H392.5c-2.21,0-4-1.79-4-4v-24c0-2.21,1.79-4,4-4h16.67
				C411.37,330.643,413.17,332.433,413.17,334.643z M405.17,354.643v-16h-8.67v16H405.17z"/>
			<rect x="396.5" y="374.643" style="fill:#E8653D;" width="8.67" height="3.33"/>
			<rect x="396.5" y="338.643" style="fill:#E8653D;" width="8.67" height="16"/>
			<path style="fill:#4D4D4D;" d="M400.78,182.733l-0.49,2.21c-4.87-1.05-9.93-1.6-15.12-1.6c-19.24,0-36.73,7.57-49.65,19.9
				l-2.62-1.23c2.55-2.32,4.15-5.66,4.15-9.37c0-6.99-5.68-12.67-12.66-12.67c-6.99,0-12.67,5.68-12.67,12.67h-2.03v-31.34h59.98
				c-0.12,0.59-0.21,1.18-0.23,1.78c-0.12,2.87,0.88,5.61,2.82,7.72l5.78,6.28c1.94,2.1,4.59,3.33,7.46,3.45
				c0.15,0.01,0.3,0.01,0.45,0.01c2.23,0,4.37-0.69,6.17-1.97C394.69,180.563,397.63,181.973,400.78,182.733z M369.17,171.973
				c0-2.21-1.8-4-4-4H350.5c-2.21,0-4,1.79-4,4c0,2.21,1.79,4,4,4h14.67C367.37,175.973,369.17,174.183,369.17,171.973z
				 M341.83,171.973c0-2.21-1.79-4-4-4h-14.66c-2.21,0-4,1.79-4,4c0,2.21,1.79,4,4,4h14.66
				C340.04,175.973,341.83,174.183,341.83,171.973z"/>
			<path d="M385.17,241.293c7.74,0,14.04,6.3,14.04,14.05c0,7.74-6.3,14.04-14.04,14.04c-7.75,0-14.05-6.3-14.05-14.04
				C371.12,247.593,377.42,241.293,385.17,241.293z M391.21,255.343c0-3.34-2.71-6.05-6.04-6.05c-3.34,0-6.05,2.71-6.05,6.05
				c0,3.33,2.71,6.04,6.05,6.04C388.5,261.383,391.21,258.673,391.21,255.343z"/>
			<path style="fill:#E8653D;" d="M385.17,249.293c3.33,0,6.04,2.71,6.04,6.05c0,3.33-2.71,6.04-6.04,6.04
				c-3.34,0-6.05-2.71-6.05-6.04C379.12,252.003,381.83,249.293,385.17,249.293z"/>
			<path style="fill:#E8653D;" d="M385.17,191.343c1.63,0,3.24,0.08,4.84,0.2c-1.19,1.32-2.92,2.15-4.84,2.15
				c-1.93,0-3.66-0.83-4.85-2.15C381.92,191.423,383.53,191.343,385.17,191.343z"/>
			<path style="fill:#E8653D;" d="M390.01,319.133c-1.6,0.12-3.21,0.21-4.84,0.21c-1.64,0-3.25-0.09-4.85-0.21
				c1.19-1.32,2.92-2.14,4.85-2.14C387.09,316.993,388.82,317.813,390.01,319.133z"/>
			<path style="fill:#808080;" d="M385.17,306.193v2.8c-6.05,0-11.22,3.63-13.4,8.92c-2.14-0.45-4.24-1.02-6.29-1.69
				c0.76-5.67-1.91-11.4-7.14-14.42c-5.22-3.02-11.51-2.47-16.04,1.02c-1.61-1.46-3.15-3-4.61-4.62c3.48-4.53,4.03-10.81,1.01-16.04
				c-0.17-0.29-0.34-0.57-0.53-0.85l2.89-0.68C349.84,295.893,366.32,306.193,385.17,306.193z"/>
			<path style="fill:#808080;" d="M385.17,201.693v2.79c-18.85,0-35.33,10.3-44.11,25.56l-2.89-0.68c0.19-0.28,0.36-0.56,0.53-0.85
				c3.02-5.22,2.47-11.51-1.01-16.04c1.46-1.62,3-3.16,4.62-4.62c2.54,1.94,5.6,2.99,8.74,2.99c2.48,0,4.99-0.64,7.29-1.97
				c5.23-3.02,7.9-8.75,7.14-14.42c2.05-0.67,4.15-1.23,6.29-1.69C373.95,198.063,379.12,201.693,385.17,201.693z"/>
			<path d="M381.83,370.643v11.33c0,2.21-1.79,4-4,4h-16.66c-2.21,0-4-1.79-4-4v-11.33c0-2.21,1.79-4,4-4h16.66
				C380.04,366.643,381.83,368.433,381.83,370.643z M373.83,377.973v-3.33h-8.66v3.33H373.83z"/>
			<path d="M381.83,334.643v24c0,2.21-1.79,4-4,4h-16.66c-2.21,0-4-1.79-4-4v-24c0-2.21,1.79-4,4-4h16.66
				C380.04,330.643,381.83,332.433,381.83,334.643z M373.83,354.643v-16h-8.66v16H373.83z"/>
			<rect x="365.17" y="374.643" style="fill:#E8653D;" width="8.66" height="3.33"/>
			<rect x="365.17" y="338.643" style="fill:#E8653D;" width="8.66" height="16"/>
			<path d="M365.17,167.973c2.2,0,4,1.79,4,4c0,2.21-1.8,4-4,4H350.5c-2.21,0-4-1.79-4-4c0-2.21,1.79-4,4-4H365.17z"/>
			<path style="fill:#E8653D;" d="M357.47,197.653c-0.37,1.75-1.46,3.33-3.13,4.3c-1.66,0.96-3.57,1.11-5.26,0.56
				C351.74,200.693,354.54,199.063,357.47,197.653z"/>
			<path style="fill:#E8653D;" d="M354.34,308.733c1.67,0.96,2.76,2.55,3.13,4.3c-2.93-1.41-5.73-3.05-8.39-4.87
				C350.77,307.613,352.68,307.773,354.34,308.733z"/>
			<path style="fill:#808080;" d="M350.2,91.543c1.42,0.49,2.19,2.05,1.7,3.48l-13.8,40.23c-0.49,1.42-2.05,2.19-3.48,1.7
				l-8.07-2.77c-0.69-0.24-1.25-0.73-1.57-1.39c-0.32-0.65-0.36-1.39-0.13-2.09l13.81-40.23c0.23-0.69,0.72-1.24,1.38-1.56
				c0.38-0.19,0.79-0.28,1.2-0.28c0.3,0,0.6,0.05,0.89,0.15L350.2,91.543z"/>
			<path d="M350.5,370.643v11.33c0,2.21-1.79,4-4,4h-16.67c-2.21,0-4-1.79-4-4v-11.33c0-2.21,1.79-4,4-4h16.67
				C348.71,366.643,350.5,368.433,350.5,370.643z M342.5,377.973v-3.33h-8.67v3.33H342.5z"/>
			<path d="M350.5,334.643v24c0,2.21-1.79,4-4,4h-16.67c-2.21,0-4-1.79-4-4v-24c0-2.21,1.79-4,4-4h16.67
				C348.71,330.643,350.5,332.433,350.5,334.643z M342.5,354.643v-16h-8.67v16H342.5z"/>
			<rect x="333.83" y="374.643" style="fill:#E8653D;" width="8.67" height="3.33"/>
			<rect x="333.83" y="338.643" style="fill:#E8653D;" width="8.67" height="16"/>
			<path style="fill:#808080;" d="M338.17,229.363l2.89,0.68c-4.3,7.45-6.75,16.09-6.75,25.3h-2.79c0-6.05-3.64-11.22-8.93-13.4
				c0.45-2.14,1.02-4.24,1.69-6.3c0.64,0.09,1.27,0.15,1.91,0.15C330.9,235.793,335.42,233.483,338.17,229.363z"/>
			<path style="fill:#808080;" d="M341.06,280.633l-2.89,0.68c-3.13-4.67-8.53-7.01-13.89-6.29c-0.67-2.05-1.24-4.15-1.69-6.29
				c5.29-2.18,8.93-7.35,8.93-13.39h2.79C334.31,264.543,336.76,273.183,341.06,280.633z"/>
			<path d="M337.83,167.973c2.21,0,4,1.79,4,4c0,2.21-1.79,4-4,4h-14.66c-2.21,0-4-1.79-4-4c0-2.21,1.79-4,4-4H337.83z"/>
			<path d="M324.39,179.973c6.98,0,12.66,5.68,12.66,12.67c0,3.71-1.6,7.05-4.15,9.37c-2.25,2.04-5.24,3.29-8.51,3.29
				c-6.99,0-12.67-5.68-12.67-12.66C311.72,185.653,317.4,179.973,324.39,179.973z M329.05,192.643c0-2.58-2.09-4.67-4.66-4.67
				c-2.58,0-4.67,2.09-4.67,4.67c0,2.57,2.09,4.66,4.67,4.66C326.96,197.303,329.05,195.213,329.05,192.643z"/>
			<path style="fill:#E8653D;" d="M332.34,219.253c0.55,1.69,0.4,3.6-0.56,5.26c-0.97,1.67-2.55,2.76-4.3,3.13
				C328.89,224.713,330.52,221.913,332.34,219.253z"/>
			<path style="fill:#E8653D;" d="M331.78,286.163c0.96,1.67,1.11,3.57,0.56,5.26c-1.82-2.66-3.45-5.46-4.86-8.38
				C329.23,283.403,330.81,284.493,331.78,286.163z"/>
			<path style="fill:#333333;" d="M331.7,80.823l-0.69,3.89c-0.11,0.63-0.06,1.23,0.11,1.8c-10.68-1.48-21.28,4.75-24.91,15.32
				c-2.44,7.12-1.17,14.63,2.77,20.42h-5.39c-2.17,0-3.93-1.76-3.93-3.92v-12.96c0-3.08-1.19-5.96-3.35-8.1
				c-2.35-2.37-5.62-3.59-8.97-3.34c-5.95,0.43-10.61,5.57-10.61,11.69v13.18c0,0.92-0.36,1.79-1.02,2.45
				c-0.71,0.72-1.68,1.07-2.68,1.01c-1.78-0.11-3.23-1.78-3.23-3.72v-13.17c0-3.08-1.19-5.96-3.35-8.1
				c-2.35-2.37-5.63-3.59-8.97-3.34c-5.95,0.43-10.61,5.57-10.61,11.69v13.18c0,0.92-0.36,1.79-1.01,2.45
				c-0.72,0.72-1.69,1.07-2.69,1.01c-1.78-0.11-3.23-1.78-3.23-3.72v-37.72H331.7z"/>
			<path style="fill:#E8653D;" d="M328.87,94.333l-9.37,27.33c-5.42-3.72-7.95-10.72-5.72-17.24
				C316.02,97.913,322.31,93.943,328.87,94.333z"/>
			<path style="fill:#E8653D;" d="M324.39,187.973c2.57,0,4.66,2.09,4.66,4.67c0,2.57-2.09,4.66-4.66,4.66
				c-2.58,0-4.67-2.09-4.67-4.66C319.72,190.063,321.81,187.973,324.39,187.973z"/>
			<path style="fill:#E8653D;" d="M323.52,255.343c0,1.92-0.83,3.65-2.15,4.84c-0.12-1.6-0.2-3.21-0.2-4.84
				c0-1.64,0.08-3.25,0.2-4.85C322.69,251.683,323.52,253.413,323.52,255.343z"/>
			<path style="fill:#808080;" d="M301.69,161.303v228.86H178.65v-228.86H301.69z M292.83,336.623v-27.98c0-2.21-1.79-4-4-4H273.5
				c-2.21,0-4,1.79-4,4v27.98c0,2.2,1.79,4,4,4h15.33C291.04,340.623,292.83,338.823,292.83,336.623z M293.83,196.963
				c0-6.98-5.68-12.66-12.66-12.66c-6.99,0-12.67,5.68-12.67,12.66c0,6.99,5.68,12.67,12.67,12.67
				C288.15,209.633,293.83,203.953,293.83,196.963z M293.83,226.163c0-6.98-5.68-12.67-12.66-12.67c-6.99,0-12.67,5.69-12.67,12.67
				c0,6.99,5.68,12.67,12.67,12.67C288.15,238.833,293.83,233.153,293.83,226.163z M293.83,255.363c0-6.99-5.68-12.67-12.66-12.67
				c-6.99,0-12.67,5.68-12.67,12.67c0,6.98,5.68,12.66,12.67,12.66C288.15,268.023,293.83,262.343,293.83,255.363z M293.83,284.553
				c0-6.98-5.68-12.66-12.66-12.66c-6.99,0-12.67,5.68-12.67,12.66c0,6.99,5.68,12.67,12.67,12.67
				C288.15,297.223,293.83,291.543,293.83,284.553z M283.83,174.643c0-2.21-1.79-4-4-4h-18.66c-2.21,0-4,1.79-4,4c0,2.21,1.79,4,4,4
				h18.66C282.04,178.643,283.83,176.853,283.83,174.643z M275.5,371.973v-19.33c0-2.21-1.79-4-4-4s-4,1.79-4,4v19.33
				c0,2.21,1.79,4,4,4S275.5,374.183,275.5,371.973z M259.83,375.303v-26c0-2.21-1.79-4-4-4s-4,1.79-4,4v26c0,2.21,1.79,4,4,4
				S259.83,377.513,259.83,375.303z M256.5,324.643c0-2.21-1.79-4-4-4h-24.67c-2.21,0-4,1.79-4,4c0,2.21,1.79,4,4,4h24.67
				C254.71,328.643,256.5,326.853,256.5,324.643z M256.17,190.963c0-8.82-7.18-16-16-16c-8.83,0-16,7.18-16,16c0,8.83,7.17,16,16,16
				C248.99,206.963,256.17,199.793,256.17,190.963z M250.83,214.643c0-2.21-1.79-4-4-4H233.5c-2.21,0-4,1.79-4,4c0,2.21,1.79,4,4,4
				h13.33C249.04,218.643,250.83,216.853,250.83,214.643z M251.5,239.583c0-6.25-5.08-11.33-11.33-11.33s-11.34,5.08-11.34,11.33
				s5.09,11.34,11.34,11.34S251.5,245.833,251.5,239.583z M251.5,267.363c0-6.25-5.08-11.33-11.33-11.33s-11.34,5.08-11.34,11.33
				s5.09,11.33,11.34,11.33S251.5,273.613,251.5,267.363z M251.5,295.143c0-6.25-5.08-11.33-11.33-11.33s-11.34,5.08-11.34,11.33
				s5.09,11.33,11.34,11.33S251.5,301.393,251.5,295.143z M244.17,381.303v-38c0-2.21-1.79-4-4-4c-2.21,0-4,1.79-4,4v38
				c0,2.21,1.79,4,4,4C242.38,385.303,244.17,383.513,244.17,381.303z M228.5,375.303v-26c0-2.21-1.79-4-4-4s-4,1.79-4,4v26
				c0,2.21,1.79,4,4,4S228.5,377.513,228.5,375.303z M223.17,174.643c0-2.21-1.79-4-4-4H200.5c-2.21,0-4,1.79-4,4c0,2.21,1.79,4,4,4
				h18.67C221.38,178.643,223.17,176.853,223.17,174.643z M212.83,371.973v-19.33c0-2.21-1.79-4-4-4c-2.21,0-4,1.79-4,4v19.33
				c0,2.21,1.79,4,4,4C211.04,375.973,212.83,374.183,212.83,371.973z M210.83,336.623v-27.98c0-2.21-1.79-4-4-4H191.5
				c-2.21,0-4,1.79-4,4v27.98c0,2.2,1.79,4,4,4h15.33C209.04,340.623,210.83,338.823,210.83,336.623z M211.83,196.963
				c0-6.98-5.68-12.66-12.66-12.66c-6.99,0-12.67,5.68-12.67,12.66c0,6.99,5.68,12.67,12.67,12.67
				C206.15,209.633,211.83,203.953,211.83,196.963z M211.83,226.163c0-6.98-5.68-12.67-12.66-12.67c-6.99,0-12.67,5.69-12.67,12.67
				c0,6.99,5.68,12.67,12.67,12.67C206.15,238.833,211.83,233.153,211.83,226.163z M211.83,255.363c0-6.99-5.68-12.67-12.66-12.67
				c-6.99,0-12.67,5.68-12.67,12.67c0,6.98,5.68,12.66,12.67,12.66C206.15,268.023,211.83,262.343,211.83,255.363z M211.83,284.553
				c0-6.98-5.68-12.66-12.66-12.66c-6.99,0-12.67,5.68-12.67,12.66c0,6.99,5.68,12.67,12.67,12.67
				C206.15,297.223,211.83,291.543,211.83,284.553z"/>
			<path d="M292.83,308.643v27.98c0,2.2-1.79,4-4,4H273.5c-2.21,0-4-1.8-4-4v-27.98c0-2.21,1.79-4,4-4h15.33
				C291.04,304.643,292.83,306.433,292.83,308.643z M284.83,332.623v-19.98h-7.33v19.98H284.83z"/>
			<path d="M281.17,184.303c6.98,0,12.66,5.68,12.66,12.66c0,6.99-5.68,12.67-12.66,12.67c-6.99,0-12.67-5.68-12.67-12.67
				C268.5,189.983,274.18,184.303,281.17,184.303z M285.83,196.963c0-2.57-2.09-4.66-4.66-4.66c-2.58,0-4.67,2.09-4.67,4.66
				c0,2.58,2.09,4.67,4.67,4.67C283.74,201.633,285.83,199.543,285.83,196.963z"/>
			<path d="M281.17,213.493c6.98,0,12.66,5.69,12.66,12.67c0,6.99-5.68,12.67-12.66,12.67c-6.99,0-12.67-5.68-12.67-12.67
				C268.5,219.183,274.18,213.493,281.17,213.493z M285.83,226.163c0-2.57-2.09-4.67-4.66-4.67c-2.58,0-4.67,2.1-4.67,4.67
				c0,2.57,2.09,4.67,4.67,4.67C283.74,230.833,285.83,228.733,285.83,226.163z"/>
			<path d="M281.17,242.693c6.98,0,12.66,5.68,12.66,12.67c0,6.98-5.68,12.66-12.66,12.66c-6.99,0-12.67-5.68-12.67-12.66
				C268.5,248.373,274.18,242.693,281.17,242.693z M285.83,255.363c0-2.58-2.09-4.67-4.66-4.67c-2.58,0-4.67,2.09-4.67,4.67
				c0,2.57,2.09,4.66,4.67,4.66C283.74,260.023,285.83,257.933,285.83,255.363z"/>
			<path d="M281.17,271.893c6.98,0,12.66,5.68,12.66,12.66c0,6.99-5.68,12.67-12.66,12.67c-6.99,0-12.67-5.68-12.67-12.67
				C268.5,277.573,274.18,271.893,281.17,271.893z M285.83,284.553c0-2.57-2.09-4.66-4.66-4.66c-2.58,0-4.67,2.09-4.67,4.66
				c0,2.58,2.09,4.67,4.67,4.67C283.74,289.223,285.83,287.133,285.83,284.553z"/>
			<rect x="277.5" y="312.643" style="fill:#E8653D;" width="7.33" height="19.98"/>
			<path style="fill:#E8653D;" d="M281.17,192.303c2.57,0,4.66,2.09,4.66,4.66c0,2.58-2.09,4.67-4.66,4.67
				c-2.58,0-4.67-2.09-4.67-4.67C276.5,194.393,278.59,192.303,281.17,192.303z"/>
			<path style="fill:#E8653D;" d="M281.17,221.493c2.57,0,4.66,2.1,4.66,4.67c0,2.57-2.09,4.67-4.66,4.67
				c-2.58,0-4.67-2.1-4.67-4.67C276.5,223.593,278.59,221.493,281.17,221.493z"/>
			<path style="fill:#E8653D;" d="M281.17,250.693c2.57,0,4.66,2.09,4.66,4.67c0,2.57-2.09,4.66-4.66,4.66
				c-2.58,0-4.67-2.09-4.67-4.66C276.5,252.783,278.59,250.693,281.17,250.693z"/>
			<path style="fill:#E8653D;" d="M281.17,279.893c2.57,0,4.66,2.09,4.66,4.66c0,2.58-2.09,4.67-4.66,4.67
				c-2.58,0-4.67-2.09-4.67-4.67C276.5,281.983,278.59,279.893,281.17,279.893z"/>
			<path d="M279.83,170.643c2.21,0,4,1.79,4,4c0,2.21-1.79,4-4,4h-18.66c-2.21,0-4-1.79-4-4c0-2.21,1.79-4,4-4H279.83z"/>
			<path d="M275.5,352.643v19.33c0,2.21-1.79,4-4,4s-4-1.79-4-4v-19.33c0-2.21,1.79-4,4-4S275.5,350.433,275.5,352.643z"/>
			<path d="M259.83,349.303v26c0,2.21-1.79,4-4,4s-4-1.79-4-4v-26c0-2.21,1.79-4,4-4S259.83,347.093,259.83,349.303z"/>
			<path d="M252.5,320.643c2.21,0,4,1.79,4,4c0,2.21-1.79,4-4,4h-24.67c-2.21,0-4-1.79-4-4c0-2.21,1.79-4,4-4H252.5z"/>
			<path d="M240.17,174.963c8.82,0,16,7.18,16,16c0,8.83-7.18,16-16,16c-8.83,0-16-7.17-16-16
				C224.17,182.143,231.34,174.963,240.17,174.963z M248.17,190.963c0-4.41-3.59-8-8-8s-8,3.59-8,8c0,4.42,3.59,8,8,8
				S248.17,195.383,248.17,190.963z"/>
			<path d="M246.83,210.643c2.21,0,4,1.79,4,4c0,2.21-1.79,4-4,4H233.5c-2.21,0-4-1.79-4-4c0-2.21,1.79-4,4-4H246.83z"/>
			<path d="M240.17,228.253c6.25,0,11.33,5.08,11.33,11.33s-5.08,11.34-11.33,11.34s-11.34-5.09-11.34-11.34
				S233.92,228.253,240.17,228.253z M243.5,239.583c0-1.84-1.5-3.33-3.33-3.33c-1.84,0-3.34,1.49-3.34,3.33
				c0,1.84,1.5,3.34,3.34,3.34C242,242.923,243.5,241.423,243.5,239.583z"/>
			<path d="M240.17,256.033c6.25,0,11.33,5.08,11.33,11.33s-5.08,11.33-11.33,11.33s-11.34-5.08-11.34-11.33
				S233.92,256.033,240.17,256.033z M243.5,267.363c0-1.84-1.5-3.33-3.33-3.33c-1.84,0-3.34,1.49-3.34,3.33s1.5,3.33,3.34,3.33
				C242,270.693,243.5,269.203,243.5,267.363z"/>
			<path d="M240.17,283.813c6.25,0,11.33,5.08,11.33,11.33s-5.08,11.33-11.33,11.33s-11.34-5.08-11.34-11.33
				S233.92,283.813,240.17,283.813z M243.5,295.143c0-1.84-1.5-3.33-3.33-3.33c-1.84,0-3.34,1.49-3.34,3.33s1.5,3.33,3.34,3.33
				C242,298.473,243.5,296.983,243.5,295.143z"/>
			<path style="fill:#E8653D;" d="M240.17,182.963c4.41,0,8,3.59,8,8c0,4.42-3.59,8-8,8s-8-3.58-8-8
				C232.17,186.553,235.76,182.963,240.17,182.963z"/>
			<path d="M244.17,343.303v38c0,2.21-1.79,4-4,4c-2.21,0-4-1.79-4-4v-38c0-2.21,1.79-4,4-4
				C242.38,339.303,244.17,341.093,244.17,343.303z"/>
			<path style="fill:#E8653D;" d="M240.17,236.253c1.83,0,3.33,1.49,3.33,3.33c0,1.84-1.5,3.34-3.33,3.34
				c-1.84,0-3.34-1.5-3.34-3.34C236.83,237.743,238.33,236.253,240.17,236.253z"/>
			<path style="fill:#E8653D;" d="M240.17,264.033c1.83,0,3.33,1.49,3.33,3.33s-1.5,3.33-3.33,3.33c-1.84,0-3.34-1.49-3.34-3.33
				S238.33,264.033,240.17,264.033z"/>
			<path style="fill:#E8653D;" d="M240.17,291.813c1.83,0,3.33,1.49,3.33,3.33s-1.5,3.33-3.33,3.33c-1.84,0-3.34-1.49-3.34-3.33
				S238.33,291.813,240.17,291.813z"/>
			<path d="M228.5,349.303v26c0,2.21-1.79,4-4,4s-4-1.79-4-4v-26c0-2.21,1.79-4,4-4S228.5,347.093,228.5,349.303z"/>
			<path d="M219.17,170.643c2.21,0,4,1.79,4,4c0,2.21-1.79,4-4,4H200.5c-2.21,0-4-1.79-4-4c0-2.21,1.79-4,4-4H219.17z"/>
			<path d="M212.83,352.643v19.33c0,2.21-1.79,4-4,4c-2.21,0-4-1.79-4-4v-19.33c0-2.21,1.79-4,4-4
				C211.04,348.643,212.83,350.433,212.83,352.643z"/>
			<path d="M210.83,308.643v27.98c0,2.2-1.79,4-4,4H191.5c-2.21,0-4-1.8-4-4v-27.98c0-2.21,1.79-4,4-4h15.33
				C209.04,304.643,210.83,306.433,210.83,308.643z M202.83,332.623v-19.98h-7.33v19.98H202.83z"/>
			<path d="M199.17,184.303c6.98,0,12.66,5.68,12.66,12.66c0,6.99-5.68,12.67-12.66,12.67c-6.99,0-12.67-5.68-12.67-12.67
				C186.5,189.983,192.18,184.303,199.17,184.303z M203.83,196.963c0-2.57-2.09-4.66-4.66-4.66c-2.58,0-4.67,2.09-4.67,4.66
				c0,2.58,2.09,4.67,4.67,4.67C201.74,201.633,203.83,199.543,203.83,196.963z"/>
			<path d="M199.17,213.493c6.98,0,12.66,5.69,12.66,12.67c0,6.99-5.68,12.67-12.66,12.67c-6.99,0-12.67-5.68-12.67-12.67
				C186.5,219.183,192.18,213.493,199.17,213.493z M203.83,226.163c0-2.57-2.09-4.67-4.66-4.67c-2.58,0-4.67,2.1-4.67,4.67
				c0,2.57,2.09,4.67,4.67,4.67C201.74,230.833,203.83,228.733,203.83,226.163z"/>
			<path d="M199.17,242.693c6.98,0,12.66,5.68,12.66,12.67c0,6.98-5.68,12.66-12.66,12.66c-6.99,0-12.67-5.68-12.67-12.66
				C186.5,248.373,192.18,242.693,199.17,242.693z M203.83,255.363c0-2.58-2.09-4.67-4.66-4.67c-2.58,0-4.67,2.09-4.67,4.67
				c0,2.57,2.09,4.66,4.67,4.66C201.74,260.023,203.83,257.933,203.83,255.363z"/>
			<path d="M199.17,271.893c6.98,0,12.66,5.68,12.66,12.66c0,6.99-5.68,12.67-12.66,12.67c-6.99,0-12.67-5.68-12.67-12.67
				C186.5,277.573,192.18,271.893,199.17,271.893z M203.83,284.553c0-2.57-2.09-4.66-4.66-4.66c-2.58,0-4.67,2.09-4.67,4.66
				c0,2.58,2.09,4.67,4.67,4.67C201.74,289.223,203.83,287.133,203.83,284.553z"/>
			<rect x="195.5" y="312.643" style="fill:#E8653D;" width="7.33" height="19.98"/>
			<path style="fill:#E8653D;" d="M199.17,192.303c2.57,0,4.66,2.09,4.66,4.66c0,2.58-2.09,4.67-4.66,4.67
				c-2.58,0-4.67-2.09-4.67-4.67C194.5,194.393,196.59,192.303,199.17,192.303z"/>
			<path style="fill:#E8653D;" d="M199.17,221.493c2.57,0,4.66,2.1,4.66,4.67c0,2.57-2.09,4.67-4.66,4.67
				c-2.58,0-4.67-2.1-4.67-4.67C194.5,223.593,196.59,221.493,199.17,221.493z"/>
			<path style="fill:#E8653D;" d="M199.17,250.693c2.57,0,4.66,2.09,4.66,4.67c0,2.57-2.09,4.66-4.66,4.66
				c-2.58,0-4.67-2.09-4.67-4.66C194.5,252.783,196.59,250.693,199.17,250.693z"/>
			<path style="fill:#E8653D;" d="M199.17,279.893c2.57,0,4.66,2.09,4.66,4.66c0,2.58-2.09,4.67-4.66,4.67
				c-2.58,0-4.67-2.09-4.67-4.67C194.5,281.983,196.59,279.893,199.17,279.893z"/>
			<path style="fill:#808080;" d="M172.59,99.303c10.48,0,19,8.53,19,19c0,10.48-8.52,19-19,19c-0.8,0-1.6-0.06-2.38-0.16v-37.67
				C170.99,99.373,171.79,99.303,172.59,99.303z"/>
			<path style="fill:#4D4D4D;" d="M170.65,161.303v228.86H8.25v-228.86H170.65z M167.86,192.643c0-6.99-5.68-12.67-12.67-12.67
				c-6.98,0-12.66,5.68-12.66,12.67c0,6.98,5.68,12.66,12.66,12.66C162.18,205.303,167.86,199.623,167.86,192.643z M161.17,171.973
				c0-2.21-1.79-4-4-4H142.5c-2.21,0-4,1.79-4,4c0,2.21,1.79,4,4,4h14.67C159.38,175.973,161.17,174.183,161.17,171.973z
				 M154.5,381.973v-11.33c0-2.21-1.79-4-4-4h-16.66c-2.21,0-4,1.79-4,4v11.33c0,2.21,1.79,4,4,4h16.66
				C152.71,385.973,154.5,384.183,154.5,381.973z M154.5,358.643v-24c0-2.21-1.79-4-4-4h-16.66c-2.21,0-4,1.79-4,4v24
				c0,2.21,1.79,4,4,4h16.66C152.71,362.643,154.5,360.853,154.5,358.643z M167.17,255.343c0-39.7-32.3-72-72-72s-72,32.3-72,72
				s32.3,72,72,72S167.17,295.043,167.17,255.343z M133.84,171.973c0-2.21-1.8-4-4-4h-14.67c-2.21,0-4,1.79-4,4c0,2.21,1.79,4,4,4
				h14.67C132.04,175.973,133.84,174.183,133.84,171.973z M123.17,381.973v-11.33c0-2.21-1.79-4-4-4H102.5c-2.21,0-4,1.79-4,4v11.33
				c0,2.21,1.79,4,4,4h16.67C121.38,385.973,123.17,384.183,123.17,381.973z M123.17,358.643v-24c0-2.21-1.79-4-4-4H102.5
				c-2.21,0-4,1.79-4,4v24c0,2.21,1.79,4,4,4h16.67C121.38,362.643,123.17,360.853,123.17,358.643z M106.5,171.973
				c0-2.21-1.79-4-4-4H87.84c-2.21,0-4,1.79-4,4c0,2.21,1.79,4,4,4h14.66C104.71,175.973,106.5,174.183,106.5,171.973z
				 M91.84,381.973v-11.33c0-2.21-1.8-4-4-4H71.17c-2.21,0-4,1.79-4,4v11.33c0,2.21,1.79,4,4,4h16.67
				C90.04,385.973,91.84,384.183,91.84,381.973z M91.84,358.643v-24c0-2.21-1.8-4-4-4H71.17c-2.21,0-4,1.79-4,4v24
				c0,2.21,1.79,4,4,4h16.67C90.04,362.643,91.84,360.853,91.84,358.643z M79.17,171.973c0-2.21-1.79-4-4-4H60.5c-2.21,0-4,1.79-4,4
				c0,2.21,1.79,4,4,4h14.67C77.38,175.973,79.17,174.183,79.17,171.973z M60.5,381.973v-11.33c0-2.21-1.79-4-4-4H39.84
				c-2.21,0-4,1.79-4,4v11.33c0,2.21,1.79,4,4,4H56.5C58.71,385.973,60.5,384.183,60.5,381.973z M60.5,358.643v-24
				c0-2.21-1.79-4-4-4H39.84c-2.21,0-4,1.79-4,4v24c0,2.21,1.79,4,4,4H56.5C58.71,362.643,60.5,360.853,60.5,358.643z
				 M51.84,171.973c0-2.21-1.8-4-4-4H33.17c-2.21,0-4,1.79-4,4c0,2.21,1.79,4,4,4h14.67C50.04,175.973,51.84,174.183,51.84,171.973z
				 M34.04,199.303c0-2.21-1.8-4-4-4h-0.56v-10c0-2.21-1.79-4-4-4s-4,1.79-4,4v10h-0.56c-2.2,0-4,1.79-4,4c0,2.21,1.8,4,4,4h0.56
				v3.34c0,2.21,1.79,4,4,4s4-1.79,4-4v-3.34h0.56C32.24,203.303,34.04,201.513,34.04,199.303z M31.31,307.973c0-2.21-1.79-4-4-4
				h-8.66c-2.21,0-4,1.79-4,4s1.79,4,4,4h8.66C29.52,311.973,31.31,310.183,31.31,307.973z M31.31,319.303c0-2.21-1.79-4-4-4h-8.66
				c-2.21,0-4,1.79-4,4c0,2.21,1.79,4,4,4h8.66C29.52,323.303,31.31,321.513,31.31,319.303z M31.31,330.643c0-2.21-1.79-4-4-4h-8.66
				c-2.21,0-4,1.79-4,4c0,2.21,1.79,4,4,4h8.66C29.52,334.643,31.31,332.853,31.31,330.643z M31.31,341.973c0-2.21-1.79-4-4-4h-8.66
				c-2.21,0-4,1.79-4,4s1.79,4,4,4h8.66C29.52,345.973,31.31,344.183,31.31,341.973z"/>
			<path d="M155.19,179.973c6.99,0,12.67,5.68,12.67,12.67c0,6.98-5.68,12.66-12.67,12.66c-6.98,0-12.66-5.68-12.66-12.66
				C142.53,185.653,148.21,179.973,155.19,179.973z M159.86,192.643c0-2.58-2.09-4.67-4.67-4.67c-2.57,0-4.66,2.09-4.66,4.67
				c0,2.57,2.09,4.66,4.66,4.66C157.77,197.303,159.86,195.213,159.86,192.643z"/>
			<path style="fill:#1A1A1A;" d="M162.21,102.413v31.79c-5.18-3.4-8.62-9.25-8.62-15.9
				C153.59,111.663,157.03,105.813,162.21,102.413z"/>
			<path d="M157.17,167.973c2.21,0,4,1.79,4,4c0,2.21-1.79,4-4,4H142.5c-2.21,0-4-1.79-4-4c0-2.21,1.79-4,4-4H157.17z"/>
			<path style="fill:#E8653D;" d="M158.97,250.493c0.12,1.6,0.2,3.21,0.2,4.85c0,1.63-0.08,3.24-0.2,4.84
				c-1.33-1.19-2.15-2.92-2.15-4.84C156.82,253.413,157.64,251.683,158.97,250.493z"/>
			<path style="fill:#E8653D;" d="M155.19,187.973c2.58,0,4.67,2.09,4.67,4.67c0,2.57-2.09,4.66-4.67,4.66
				c-2.57,0-4.66-2.09-4.66-4.66C150.53,190.063,152.62,187.973,155.19,187.973z"/>
			<path style="fill:#808080;" d="M157.75,268.733c-0.46,2.14-1.03,4.24-1.69,6.29c-5.68-0.76-11.41,1.91-14.43,7.14
				c-0.17,0.29-0.32,0.58-0.47,0.87l-2.51-1.34c4.68-7.69,7.37-16.71,7.37-26.35h2.8C148.82,261.383,152.45,266.553,157.75,268.733z
				"/>
			<path style="fill:#808080;" d="M156.05,235.643c0.67,2.06,1.24,4.16,1.7,6.3c-5.3,2.18-8.93,7.35-8.93,13.4h-2.8
				c0-9.65-2.69-18.67-7.37-26.36l2.51-1.34c0.15,0.29,0.3,0.58,0.47,0.87c2.68,4.65,7.5,7.28,12.52,7.28
				C154.78,235.793,155.42,235.733,156.05,235.643z"/>
			<path d="M154.5,370.643v11.33c0,2.21-1.79,4-4,4h-16.66c-2.21,0-4-1.79-4-4v-11.33c0-2.21,1.79-4,4-4h16.66
				C152.71,366.643,154.5,368.433,154.5,370.643z M146.5,377.973v-3.33h-8.66v3.33H146.5z"/>
			<path d="M154.5,334.643v24c0,2.21-1.79,4-4,4h-16.66c-2.21,0-4-1.79-4-4v-24c0-2.21,1.79-4,4-4h16.66
				C152.71,330.643,154.5,332.433,154.5,334.643z M146.5,354.643v-16h-8.66v16H146.5z"/>
			<path style="fill:#E8653D;" d="M152.86,227.643c-1.75-0.37-3.34-1.46-4.3-3.13c-0.96-1.66-1.12-3.57-0.57-5.26
				C149.81,221.913,151.45,224.713,152.86,227.643z"/>
			<path style="fill:#E8653D;" d="M148.56,286.163c0.96-1.67,2.55-2.76,4.3-3.13c-1.41,2.93-3.05,5.73-4.87,8.39
				C147.44,289.733,147.6,287.833,148.56,286.163z"/>
			<path d="M95.17,183.343c39.7,0,72,32.3,72,72s-32.3,72-72,72s-72-32.3-72-72S55.47,183.343,95.17,183.343z M159.17,255.343
				c0-1.64-0.08-3.25-0.2-4.85c-1.33,1.19-2.15,2.92-2.15,4.85c0,1.92,0.82,3.65,2.15,4.84
				C159.09,258.583,159.17,256.973,159.17,255.343z M156.06,275.023c0.66-2.05,1.23-4.15,1.69-6.29c-5.3-2.18-8.93-7.35-8.93-13.39
				c0-6.05,3.63-11.22,8.93-13.4c-0.46-2.14-1.03-4.24-1.7-6.3c-0.63,0.09-1.27,0.15-1.9,0.15c-5.02,0-9.84-2.63-12.52-7.28
				c-0.17-0.29-0.32-0.58-0.47-0.87c-2.48-5.05-1.81-10.89,1.49-15.17c-1.47-1.62-3.01-3.16-4.63-4.62
				c-2.53,1.94-5.6,2.99-8.74,2.99c-2.47,0-4.98-0.64-7.29-1.97c-5.23-3.02-7.89-8.75-7.13-14.42c-2.06-0.67-4.16-1.23-6.3-1.69
				c-2.17,5.3-7.35,8.93-13.39,8.93c-6.05,0-11.22-3.63-13.4-8.93c-2.14,0.46-4.23,1.02-6.29,1.69c0.76,5.67-1.9,11.4-7.14,14.42
				c-2.3,1.33-4.81,1.97-7.28,1.97c-3.14,0-6.21-1.05-8.75-2.99c-1.61,1.46-3.16,3-4.62,4.62c3.48,4.53,4.03,10.82,1.02,16.04
				c-0.17,0.29-0.34,0.57-0.53,0.85c-2.76,4.12-7.28,6.43-11.99,6.43c-0.63,0-1.27-0.06-1.91-0.15c-0.67,2.06-1.23,4.16-1.69,6.3
				c5.3,2.18,8.93,7.35,8.93,13.4c0,6.04-3.63,11.21-8.93,13.39c0.46,2.14,1.02,4.24,1.69,6.29c5.36-0.72,10.77,1.62,13.9,6.29
				c0.19,0.28,0.36,0.56,0.53,0.85c3.01,5.23,2.46,11.51-1.02,16.04c1.46,1.62,3,3.16,4.61,4.61c4.54-3.48,10.82-4.03,16.04-1.01
				c5.24,3.02,7.9,8.75,7.14,14.42c2.06,0.67,4.15,1.24,6.29,1.69c2.18-5.29,7.35-8.92,13.4-8.92c6.04,0,11.22,3.63,13.39,8.92
				c2.14-0.45,4.24-1.02,6.3-1.69c-0.76-5.67,1.9-11.4,7.13-14.42c5.23-3.02,11.51-2.47,16.04,1.01c1.62-1.45,3.16-2.99,4.62-4.61
				c-3.3-4.28-3.97-10.12-1.49-15.17c0.15-0.29,0.3-0.58,0.47-0.87C144.65,276.933,150.38,274.263,156.06,275.023z M148.56,224.513
				c0.96,1.67,2.55,2.76,4.3,3.13c-1.41-2.93-3.05-5.73-4.87-8.39C147.44,220.943,147.6,222.853,148.56,224.513z M152.86,283.033
				c-1.75,0.37-3.34,1.46-4.3,3.13c-0.96,1.67-1.12,3.57-0.57,5.26C149.81,288.763,151.45,285.963,152.86,283.033z M131.25,308.163
				c-1.69-0.55-3.59-0.39-5.26,0.57c-1.67,0.96-2.76,2.55-3.12,4.3C125.79,311.623,128.59,309.983,131.25,308.163z M125.99,201.953
				c1.67,0.96,3.57,1.11,5.26,0.56c-2.66-1.82-5.46-3.45-8.38-4.86C123.23,199.403,124.32,200.983,125.99,201.953z M100.01,191.543
				c-1.6-0.12-3.21-0.2-4.84-0.2c-1.63,0-3.25,0.08-4.85,0.2c1.19,1.32,2.92,2.15,4.85,2.15
				C97.09,193.693,98.82,192.863,100.01,191.543z M95.17,319.343c1.63,0,3.24-0.09,4.84-0.21c-1.19-1.32-2.92-2.14-4.84-2.14
				c-1.93,0-3.66,0.82-4.85,2.14C91.92,319.253,93.54,319.343,95.17,319.343z M64.34,201.953c1.68-0.97,2.76-2.55,3.13-4.3
				c-2.93,1.41-5.73,3.04-8.39,4.86C60.78,203.063,62.68,202.913,64.34,201.953z M67.47,313.033c-0.37-1.75-1.45-3.34-3.13-4.3
				c-1.66-0.96-3.56-1.12-5.26-0.57C61.74,309.983,64.54,311.623,67.47,313.033z M41.78,224.513c0.96-1.66,1.11-3.57,0.57-5.26
				c-1.83,2.66-3.46,5.46-4.87,8.39C39.23,227.273,40.81,226.193,41.78,224.513z M42.35,291.423c0.54-1.69,0.39-3.59-0.57-5.26
				c-0.97-1.67-2.55-2.76-4.3-3.13C38.89,285.963,40.52,288.763,42.35,291.423z M31.37,260.183c1.33-1.19,2.15-2.92,2.15-4.84
				c0-1.93-0.82-3.66-2.15-4.85c-0.12,1.6-0.2,3.21-0.2,4.85C31.17,256.973,31.25,258.583,31.37,260.183z"/>
			<path style="fill:#E8653D;" d="M100.09,111.303h46.43c-0.6,2.24-0.93,4.58-0.93,7c0,2.07,0.24,4.07,0.68,6h-46.18
				c-3.58,0-6.5-2.91-6.5-6.5c0-1.73,0.68-3.36,1.91-4.59C96.73,111.983,98.36,111.303,100.09,111.303z"/>
			<rect x="137.84" y="374.643" style="fill:#E8653D;" width="8.66" height="3.33"/>
			<rect x="137.84" y="338.643" style="fill:#E8653D;" width="8.66" height="16"/>
			<path style="fill:#808080;" d="M141.16,227.643l-2.51,1.34c-8.93-14.68-25.08-24.5-43.48-24.5v-2.79
				c6.04,0,11.22-3.63,13.39-8.93c2.14,0.46,4.24,1.02,6.3,1.69c-0.76,5.67,1.9,11.4,7.13,14.42c2.31,1.33,4.82,1.97,7.29,1.97
				c3.14,0,6.21-1.05,8.74-2.99c1.62,1.46,3.16,3,4.63,4.62C139.35,216.753,138.68,222.593,141.16,227.643z"/>
			<path style="fill:#808080;" d="M138.65,281.693l2.51,1.34c-2.48,5.05-1.81,10.89,1.49,15.17c-1.46,1.62-3,3.16-4.62,4.61
				c-4.53-3.48-10.81-4.03-16.04-1.01c-5.23,3.02-7.89,8.75-7.13,14.42c-2.06,0.67-4.16,1.24-6.3,1.69
				c-2.17-5.29-7.35-8.92-13.39-8.92v-2.8C113.57,306.193,129.72,296.373,138.65,281.693z"/>
			<path d="M138.65,228.983c4.68,7.69,7.37,16.71,7.37,26.36c0,9.64-2.69,18.66-7.37,26.35c-8.93,14.68-25.08,24.5-43.48,24.5
				c-18.84,0-35.32-10.3-44.11-25.56c-4.3-7.45-6.75-16.09-6.75-25.29c0-9.21,2.45-17.85,6.75-25.3
				c8.79-15.26,25.27-25.56,44.11-25.56C113.57,204.483,129.72,214.303,138.65,228.983z M138.02,255.343
				c0-23.64-19.22-42.86-42.85-42.86s-42.86,19.22-42.86,42.86c0,23.63,19.23,42.85,42.86,42.85S138.02,278.973,138.02,255.343z"/>
			<path d="M129.84,167.973c2.2,0,4,1.79,4,4c0,2.21-1.8,4-4,4h-14.67c-2.21,0-4-1.79-4-4c0-2.21,1.79-4,4-4H129.84z"/>
			<path style="fill:#E8653D;" d="M125.99,308.733c1.67-0.96,3.57-1.12,5.26-0.57c-2.66,1.82-5.46,3.46-8.38,4.87
				C123.23,311.283,124.32,309.693,125.99,308.733z"/>
			<path style="fill:#E8653D;" d="M131.25,202.513c-1.69,0.55-3.59,0.4-5.26-0.56c-1.67-0.97-2.76-2.55-3.12-4.3
				C125.79,199.063,128.59,200.693,131.25,202.513z"/>
			<path style="fill:#1A1A1A;" d="M95.17,212.483c23.63,0,42.85,19.22,42.85,42.86c0,23.63-19.22,42.85-42.85,42.85
				s-42.86-19.22-42.86-42.85C52.31,231.703,71.54,212.483,95.17,212.483z M109.21,255.343c0-7.75-6.3-14.05-14.04-14.05
				s-14.04,6.3-14.04,14.05c0,7.74,6.3,14.04,14.04,14.04S109.21,263.083,109.21,255.343z"/>
			<path d="M123.17,370.643v11.33c0,2.21-1.79,4-4,4H102.5c-2.21,0-4-1.79-4-4v-11.33c0-2.21,1.79-4,4-4h16.67
				C121.38,366.643,123.17,368.433,123.17,370.643z M115.17,377.973v-3.33h-8.67v3.33H115.17z"/>
			<path d="M123.17,334.643v24c0,2.21-1.79,4-4,4H102.5c-2.21,0-4-1.79-4-4v-24c0-2.21,1.79-4,4-4h16.67
				C121.38,330.643,123.17,332.433,123.17,334.643z M115.17,354.643v-16h-8.67v16H115.17z"/>
			<rect x="106.5" y="374.643" style="fill:#E8653D;" width="8.67" height="3.33"/>
			<rect x="106.5" y="338.643" style="fill:#E8653D;" width="8.67" height="16"/>
			<path d="M102.5,167.973c2.21,0,4,1.79,4,4c0,2.21-1.79,4-4,4H87.84c-2.21,0-4-1.79-4-4c0-2.21,1.79-4,4-4H102.5z"/>
			<path d="M95.17,241.293c7.74,0,14.04,6.3,14.04,14.05c0,7.74-6.3,14.04-14.04,14.04s-14.04-6.3-14.04-14.04
				C81.13,247.593,87.43,241.293,95.17,241.293z M101.21,255.343c0-3.34-2.71-6.05-6.04-6.05s-6.04,2.71-6.04,6.05
				c0,3.33,2.71,6.04,6.04,6.04S101.21,258.673,101.21,255.343z"/>
			<path style="fill:#E8653D;" d="M95.17,249.293c3.33,0,6.04,2.71,6.04,6.05c0,3.33-2.71,6.04-6.04,6.04s-6.04-2.71-6.04-6.04
				C89.13,252.003,91.84,249.293,95.17,249.293z"/>
			<circle cx="93.86" cy="407.873" r="5"/>
			<path style="fill:#E8653D;" d="M95.17,191.343c1.63,0,3.24,0.08,4.84,0.2c-1.19,1.32-2.92,2.15-4.84,2.15
				c-1.93,0-3.66-0.83-4.85-2.15C91.92,191.423,93.54,191.343,95.17,191.343z"/>
			<path style="fill:#E8653D;" d="M100.01,319.133c-1.6,0.12-3.21,0.21-4.84,0.21c-1.63,0-3.25-0.09-4.85-0.21
				c1.19-1.32,2.92-2.14,4.85-2.14C97.09,316.993,98.82,317.813,100.01,319.133z"/>
			<path style="fill:#808080;" d="M95.17,306.193v2.8c-6.05,0-11.22,3.63-13.4,8.92c-2.14-0.45-4.23-1.02-6.29-1.69
				c0.76-5.67-1.9-11.4-7.14-14.42c-5.22-3.02-11.5-2.47-16.04,1.01c-1.61-1.45-3.15-2.99-4.61-4.61
				c3.48-4.53,4.03-10.81,1.02-16.04c-0.17-0.29-0.34-0.57-0.53-0.85l2.88-0.68C59.85,295.893,76.33,306.193,95.17,306.193z"/>
			<path style="fill:#808080;" d="M95.17,201.693v2.79c-18.84,0-35.32,10.3-44.11,25.56l-2.88-0.68c0.19-0.28,0.36-0.56,0.53-0.85
				c3.01-5.22,2.46-11.51-1.02-16.04c1.46-1.62,3.01-3.16,4.62-4.62c2.54,1.94,5.61,2.99,8.75,2.99c2.47,0,4.98-0.64,7.28-1.97
				c5.24-3.02,7.9-8.75,7.14-14.42c2.06-0.67,4.15-1.23,6.29-1.69C83.95,198.063,89.12,201.693,95.17,201.693z"/>
			<path d="M91.84,370.643v11.33c0,2.21-1.8,4-4,4H71.17c-2.21,0-4-1.79-4-4v-11.33c0-2.21,1.79-4,4-4h16.67
				C90.04,366.643,91.84,368.433,91.84,370.643z M83.84,377.973v-3.33h-8.67v3.33H83.84z"/>
			<path d="M91.84,334.643v24c0,2.21-1.8,4-4,4H71.17c-2.21,0-4-1.79-4-4v-24c0-2.21,1.79-4,4-4h16.67
				C90.04,330.643,91.84,332.433,91.84,334.643z M83.84,354.643v-16h-8.67v16H83.84z"/>
			<rect x="75.17" y="374.643" style="fill:#E8653D;" width="8.67" height="3.33"/>
			<rect x="75.17" y="338.643" style="fill:#E8653D;" width="8.67" height="16"/>
			<path d="M75.17,167.973c2.21,0,4,1.79,4,4c0,2.21-1.79,4-4,4H60.5c-2.21,0-4-1.79-4-4c0-2.21,1.79-4,4-4H75.17z"/>
			<path style="fill:#E8653D;" d="M67.47,197.653c-0.37,1.75-1.45,3.33-3.13,4.3c-1.66,0.96-3.56,1.11-5.26,0.56
				C61.74,200.693,64.54,199.063,67.47,197.653z"/>
			<path style="fill:#E8653D;" d="M64.34,308.733c1.68,0.96,2.76,2.55,3.13,4.3c-2.93-1.41-5.73-3.05-8.39-4.87
				C60.78,307.613,62.68,307.773,64.34,308.733z"/>
			<circle cx="57.86" cy="407.873" r="5"/>
			<path d="M60.5,370.643v11.33c0,2.21-1.79,4-4,4H39.84c-2.21,0-4-1.79-4-4v-11.33c0-2.21,1.79-4,4-4H56.5
				C58.71,366.643,60.5,368.433,60.5,370.643z M52.5,377.973v-3.33h-8.66v3.33H52.5z"/>
			<path d="M60.5,334.643v24c0,2.21-1.79,4-4,4H39.84c-2.21,0-4-1.79-4-4v-24c0-2.21,1.79-4,4-4H56.5
				C58.71,330.643,60.5,332.433,60.5,334.643z M52.5,354.643v-16h-8.66v16H52.5z"/>
			<rect x="43.84" y="374.643" style="fill:#E8653D;" width="8.66" height="3.33"/>
			<rect x="43.84" y="338.643" style="fill:#E8653D;" width="8.66" height="16"/>
			<path style="fill:#808080;" d="M48.18,229.363l2.88,0.68c-4.3,7.45-6.75,16.09-6.75,25.3h-2.79c0-6.05-3.63-11.22-8.93-13.4
				c0.46-2.14,1.02-4.24,1.69-6.3c0.64,0.09,1.28,0.15,1.91,0.15C40.9,235.793,45.42,233.483,48.18,229.363z"/>
			<path style="fill:#808080;" d="M51.06,280.633l-2.88,0.68c-3.13-4.67-8.54-7.01-13.9-6.29c-0.67-2.05-1.23-4.15-1.69-6.29
				c5.3-2.18,8.93-7.35,8.93-13.39h2.79C44.31,264.543,46.76,273.183,51.06,280.633z"/>
			<path d="M47.84,167.973c2.2,0,4,1.79,4,4c0,2.21-1.8,4-4,4H33.17c-2.21,0-4-1.79-4-4c0-2.21,1.79-4,4-4H47.84z"/>
			<circle cx="41.36" cy="407.873" r="5"/>
			<path style="fill:#E8653D;" d="M42.35,219.253c0.54,1.69,0.39,3.6-0.57,5.26c-0.97,1.68-2.55,2.76-4.3,3.13
				C38.89,224.713,40.52,221.913,42.35,219.253z"/>
			<path style="fill:#E8653D;" d="M41.78,286.163c0.96,1.67,1.11,3.57,0.57,5.26c-1.83-2.66-3.46-5.46-4.87-8.39
				C39.23,283.403,40.81,284.493,41.78,286.163z"/>
			<path d="M30.04,195.303c2.2,0,4,1.79,4,4c0,2.21-1.8,4-4,4h-0.56v3.34c0,2.21-1.79,4-4,4s-4-1.79-4-4v-3.34h-0.56
				c-2.2,0-4-1.79-4-4c0-2.21,1.8-4,4-4h0.56v-10c0-2.21,1.79-4,4-4s4,1.79,4,4v10H30.04z"/>
			<path style="fill:#E8653D;" d="M33.52,255.343c0,1.92-0.82,3.65-2.15,4.84c-0.12-1.6-0.2-3.21-0.2-4.84
				c0-1.64,0.08-3.25,0.2-4.85C32.7,251.683,33.52,253.413,33.52,255.343z"/>
			<path d="M27.31,303.973c2.21,0,4,1.79,4,4s-1.79,4-4,4h-8.66c-2.21,0-4-1.79-4-4s1.79-4,4-4H27.31z"/>
			<path d="M27.31,315.303c2.21,0,4,1.79,4,4c0,2.21-1.79,4-4,4h-8.66c-2.21,0-4-1.79-4-4c0-2.21,1.79-4,4-4H27.31z"/>
			<path d="M27.31,326.643c2.21,0,4,1.79,4,4c0,2.21-1.79,4-4,4h-8.66c-2.21,0-4-1.79-4-4c0-2.21,1.79-4,4-4H27.31z"/>
			<path d="M27.31,337.973c2.21,0,4,1.79,4,4s-1.79,4-4,4h-8.66c-2.21,0-4-1.79-4-4s1.79-4,4-4H27.31z"/>
		</g>
		<g>
		</g>
	</g>
</g>
</svg>